<svg width="40" height="41" viewBox="0 0 40 41" fill="none" xmlns="http://www.w3.org/2000/svg">
<path d="M20 0.400879C25.434 0.400879 26.112 0.420879 28.244 0.520879C30.374 0.620879 31.824 0.954879 33.1 1.45088C34.42 1.95888 35.532 2.64688 36.644 3.75688C37.661 4.75667 38.4479 5.96606 38.95 7.30088C39.444 8.57488 39.78 10.0269 39.88 12.1569C39.974 14.2889 40 14.9669 40 20.4009C40 25.8349 39.98 26.5129 39.88 28.6449C39.78 30.7749 39.444 32.2249 38.95 33.5009C38.4494 34.8364 37.6622 36.0461 36.644 37.0449C35.6439 38.0615 34.4346 38.8484 33.1 39.3509C31.826 39.8449 30.374 40.1809 28.244 40.2809C26.112 40.3749 25.434 40.4009 20 40.4009C14.566 40.4009 13.888 40.3809 11.756 40.2809C9.626 40.1809 8.176 39.8449 6.9 39.3509C5.56465 38.8498 4.35505 38.0628 3.356 37.0449C2.33881 36.0453 1.55186 34.8358 1.05 33.5009C0.554 32.2269 0.22 30.7749 0.12 28.6449C0.0259999 26.5129 0 25.8349 0 20.4009C0 14.9669 0.0199999 14.2889 0.12 12.1569C0.22 10.0249 0.554 8.57688 1.05 7.30088C1.55047 5.96524 2.33761 4.75552 3.356 3.75688C4.35534 2.73934 5.56486 1.95234 6.9 1.45088C8.176 0.954879 9.624 0.620879 11.756 0.520879C13.888 0.426879 14.566 0.400879 20 0.400879ZM20 10.4009C17.3478 10.4009 14.8043 11.4544 12.9289 13.3298C11.0536 15.2052 10 17.7487 10 20.4009C10 23.053 11.0536 25.5966 12.9289 27.4719C14.8043 29.3473 17.3478 30.4009 20 30.4009C22.6522 30.4009 25.1957 29.3473 27.0711 27.4719C28.9464 25.5966 30 23.053 30 20.4009C30 17.7487 28.9464 15.2052 27.0711 13.3298C25.1957 11.4544 22.6522 10.4009 20 10.4009V10.4009ZM33 9.90088C33 9.23784 32.7366 8.60195 32.2678 8.13311C31.7989 7.66427 31.163 7.40088 30.5 7.40088C29.837 7.40088 29.2011 7.66427 28.7322 8.13311C28.2634 8.60195 28 9.23784 28 9.90088C28 10.5639 28.2634 11.1998 28.7322 11.6686C29.2011 12.1375 29.837 12.4009 30.5 12.4009C31.163 12.4009 31.7989 12.1375 32.2678 11.6686C32.7366 11.1998 33 10.5639 33 9.90088ZM20 14.4009C21.5913 14.4009 23.1174 15.033 24.2426 16.1582C25.3679 17.2835 26 18.8096 26 20.4009C26 21.9922 25.3679 23.5183 24.2426 24.6435C23.1174 25.7687 21.5913 26.4009 20 26.4009C18.4087 26.4009 16.8826 25.7687 15.7574 24.6435C14.6321 23.5183 14 21.9922 14 20.4009C14 18.8096 14.6321 17.2835 15.7574 16.1582C16.8826 15.033 18.4087 14.4009 20 14.4009V14.4009Z" fill="white"/>
</svg>
