<svg width="28" height="28" viewBox="0 0 28 28" fill="none" xmlns="http://www.w3.org/2000/svg">
<path d="M14 24.6667C16.829 24.6667 19.5421 23.5429 21.5425 21.5425C23.5429 19.5421 24.6667 16.829 24.6667 14C24.6667 11.171 23.5429 8.45792 21.5425 6.45753C19.5421 4.45715 16.829 3.33334 14 3.33334C11.171 3.33334 8.45792 4.45715 6.45753 6.45753C4.45715 8.45792 3.33334 11.171 3.33334 14C3.33334 16.829 4.45715 19.5421 6.45753 21.5425C8.45792 23.5429 11.171 24.6667 14 24.6667V24.6667ZM14 27.3333C6.63601 27.3333 0.666672 21.364 0.666672 14C0.666672 6.63601 6.63601 0.666672 14 0.666672C21.364 0.666672 27.3333 6.63601 27.3333 14C27.3333 21.364 21.364 27.3333 14 27.3333Z" fill="white"/>
<path d="M20.6667 9.92934C20.176 10.1427 19.6493 10.2893 19.096 10.3533C19.6613 10.02 20.0933 9.492 20.2987 8.864C19.76 9.17796 19.1722 9.39883 18.56 9.51734C18.3025 9.24743 17.9927 9.03281 17.6496 8.88656C17.3064 8.74031 16.937 8.66549 16.564 8.66667C15.0533 8.66667 13.8293 9.87334 13.8293 11.36C13.8293 11.5707 13.8533 11.776 13.9 11.9733C12.8164 11.9219 11.7555 11.6451 10.7849 11.1607C9.81425 10.6763 8.95524 9.99493 8.26268 9.16C8.01943 9.56947 7.89136 10.0371 7.89201 10.5133C7.89201 11.4467 8.37601 12.2733 9.10934 12.7547C8.67527 12.7411 8.25049 12.6255 7.86934 12.4173V12.4507C7.87346 13.0766 8.09441 13.6818 8.49457 14.1631C8.89472 14.6445 9.44935 14.9723 10.064 15.0907C9.66049 15.1974 9.23827 15.2129 8.82801 15.136C9.00685 15.6745 9.34891 16.1439 9.80671 16.4792C10.2645 16.8144 10.8153 16.9988 11.3827 17.0067C10.4093 17.7567 9.2142 18.162 7.98534 18.1587C7.76534 18.1587 7.54801 18.1453 7.33334 18.1213C8.58731 18.9151 10.0413 19.3354 11.5253 19.3333C16.5573 19.3333 19.308 15.2293 19.308 11.6693L19.2987 11.32C19.8351 10.943 20.2986 10.4719 20.6667 9.92934V9.92934Z" fill="white"/>
</svg>
