<svg width="43" height="43" viewBox="0 0 43 43" fill="none" xmlns="http://www.w3.org/2000/svg">
<path d="M21.5 38.5C26.0087 38.5 30.3327 36.7089 33.5208 33.5208C36.7089 30.3327 38.5 26.0087 38.5 21.5C38.5 16.9913 36.7089 12.6673 33.5208 9.47918C30.3327 6.29107 26.0087 4.5 21.5 4.5C16.9913 4.5 12.6673 6.29107 9.47918 9.47918C6.29107 12.6673 4.5 16.9913 4.5 21.5C4.5 26.0087 6.29107 30.3327 9.47918 33.5208C12.6673 36.7089 16.9913 38.5 21.5 38.5V38.5ZM21.5 42.75C9.76363 42.75 0.25 33.2364 0.25 21.5C0.25 9.76363 9.76363 0.25 21.5 0.25C33.2364 0.25 42.75 9.76363 42.75 21.5C42.75 33.2364 33.2364 42.75 21.5 42.75Z" fill="black"/>
<path d="M32.125 15.0124C31.343 15.3524 30.5036 15.5861 29.6217 15.6881C30.5227 15.1569 31.2112 14.3154 31.5385 13.3145C30.6799 13.8149 29.7431 14.1669 28.7675 14.3558C28.3571 13.9256 27.8634 13.5836 27.3165 13.3505C26.7696 13.1174 26.1809 12.9981 25.5864 13C23.1788 13 21.228 14.9231 21.228 17.2925C21.228 17.6283 21.2663 17.9555 21.3406 18.27C19.6137 18.188 17.9228 17.7469 16.3759 16.9749C14.8289 16.2029 13.4599 15.1169 12.3561 13.7863C11.9684 14.4389 11.7643 15.1841 11.7654 15.9431C11.7654 17.4306 12.5367 18.7481 13.7055 19.5153C13.0137 19.4936 12.3367 19.3094 11.7292 18.9776V19.0308C11.7358 20.0284 12.0879 20.9929 12.7257 21.76C13.3634 22.5272 14.2474 23.0496 15.227 23.2383C14.5839 23.4083 13.911 23.433 13.2571 23.3105C13.5421 24.1687 14.0873 24.9169 14.8169 25.4512C15.5465 25.9855 16.4244 26.2793 17.3286 26.2919C15.7773 27.4873 13.8726 28.1332 11.9141 28.1279C11.5635 28.1279 11.2171 28.1066 10.875 28.0684C12.8735 29.3334 15.1908 30.0034 17.556 30C25.5757 30 29.9596 23.4593 29.9596 17.7855L29.9447 17.2288C30.7996 16.628 31.5383 15.877 32.125 15.0124V15.0124Z" fill="black"/>
</svg>
