<svg width="27" height="27" viewBox="0 0 27 27" fill="none" xmlns="http://www.w3.org/2000/svg">
<path fill-rule="evenodd" clip-rule="evenodd" d="M22.2491 4.98374C22.5271 4.86673 22.8314 4.82638 23.1303 4.86687C23.4292 4.90737 23.7118 5.02724 23.9487 5.21401C24.1855 5.40078 24.368 5.64762 24.477 5.92883C24.5861 6.21005 24.6178 6.51536 24.5689 6.81299L22.0174 22.2896C21.7699 23.7825 20.1319 24.6386 18.7628 23.895C17.6175 23.2729 15.9165 22.3144 14.3865 21.3142C13.6215 20.8136 11.2781 19.2105 11.5661 18.0697C11.8136 17.0944 15.7511 13.4291 18.0011 11.25C18.8843 10.3939 18.4815 9.89999 17.4386 10.6875C14.8478 12.6427 10.6909 15.6161 9.31613 16.4531C8.10338 17.1911 7.47113 17.3171 6.71513 17.1911C5.33588 16.9616 4.05676 16.6061 3.01276 16.173C1.60201 15.588 1.67063 13.6485 3.01163 13.0837L22.2491 4.98374V4.98374Z" fill="white"/>
</svg>
