<svg width="45" height="46" viewBox="0 0 45 46" fill="none" xmlns="http://www.w3.org/2000/svg">
<path fill-rule="evenodd" clip-rule="evenodd" d="M37.0819 8.70706C37.5452 8.51205 38.0524 8.44479 38.5505 8.51228C39.0487 8.57978 39.5197 8.77957 39.9144 9.09085C40.3092 9.40213 40.6133 9.81353 40.7951 10.2822C40.9769 10.7509 41.0297 11.2598 40.9481 11.7558L36.6956 37.5502C36.2831 40.0383 33.5531 41.4652 31.2712 40.2258C29.3625 39.1889 26.5275 37.5914 23.9775 35.9246C22.7025 35.0902 18.7969 32.4183 19.2769 30.5171C19.6894 28.8914 26.2519 22.7827 30.0019 19.1508C31.4737 17.7239 30.8025 16.9008 29.0644 18.2133C24.7462 21.4721 17.8181 26.4277 15.5269 27.8227C13.5056 29.0527 12.4519 29.2627 11.1919 29.0527C8.89312 28.6702 6.76124 28.0777 5.02124 27.3558C2.66999 26.3808 2.78437 23.1483 5.01937 22.2071L37.0819 8.70706V8.70706Z" fill="white"/>
</svg>
