<svg width="43" height="44" viewBox="0 0 43 44" fill="none" xmlns="http://www.w3.org/2000/svg">
<path d="M21.5 38.9009C26.0087 38.9009 30.3327 37.1098 33.5208 33.9217C36.7089 30.7336 38.5 26.4096 38.5 21.9009C38.5 17.3922 36.7089 13.0682 33.5208 9.88006C30.3327 6.69195 26.0087 4.90088 21.5 4.90088C16.9913 4.90088 12.6673 6.69195 9.47918 9.88006C6.29107 13.0682 4.5 17.3922 4.5 21.9009C4.5 26.4096 6.29107 30.7336 9.47918 33.9217C12.6673 37.1098 16.9913 38.9009 21.5 38.9009V38.9009ZM21.5 43.1509C9.76363 43.1509 0.25 33.6373 0.25 21.9009C0.25 10.1645 9.76363 0.650879 21.5 0.650879C33.2364 0.650879 42.75 10.1645 42.75 21.9009C42.75 33.6373 33.2364 43.1509 21.5 43.1509Z" fill="white"/>
<path d="M32.125 15.4133C31.343 15.7533 30.5036 15.987 29.6217 16.089C30.5227 15.5578 31.2112 14.7163 31.5385 13.7154C30.6799 14.2158 29.7431 14.5678 28.7675 14.7567C28.3571 14.3265 27.8634 13.9844 27.3165 13.7514C26.7696 13.5183 26.1809 13.399 25.5864 13.4009C23.1788 13.4009 21.228 15.324 21.228 17.6934C21.228 18.0292 21.2663 18.3564 21.3406 18.6709C19.6137 18.5889 17.9228 18.1478 16.3759 17.3758C14.8289 16.6038 13.4599 15.5178 12.3561 14.1872C11.9684 14.8397 11.7643 15.585 11.7654 16.344C11.7654 17.8315 12.5367 19.149 13.7055 19.9162C13.0137 19.8945 12.3367 19.7103 11.7292 19.3785V19.4317C11.7358 20.4293 12.0879 21.3937 12.7257 22.1609C13.3634 22.9281 14.2474 23.4505 15.227 23.6392C14.5839 23.8092 13.911 23.8339 13.2571 23.7114C13.5421 24.5696 14.0873 25.3178 14.8169 25.8521C15.5465 26.3863 16.4244 26.6802 17.3286 26.6928C15.7773 27.8882 13.8726 28.5341 11.9141 28.5288C11.5635 28.5288 11.2171 28.5075 10.875 28.4693C12.8735 29.7343 15.1908 30.4042 17.556 30.4009C25.5757 30.4009 29.9596 23.8602 29.9596 18.1864L29.9447 17.6297C30.7996 17.0289 31.5383 16.2779 32.125 15.4133V15.4133Z" fill="white"/>
</svg>
