<svg width="5" height="5" viewBox="0 0 5 5" fill="none" xmlns="http://www.w3.org/2000/svg">
<g clip-path="url(#clip0_1_229)">
<path d="M2.50001 0.416656C3.65001 0.416656 4.58334 1.34999 4.58334 2.49999C4.58334 3.64999 3.65001 4.58332 2.50001 4.58332C1.35001 4.58332 0.416672 3.64999 0.416672 2.49999C0.416672 1.34999 1.35001 0.416656 2.50001 0.416656ZM2.50001 1.45832C1.92501 1.45832 1.45834 1.92499 1.45834 2.49999C1.45865 2.72766 1.53351 2.94896 1.67147 3.13006C1.80943 3.31117 2.00291 3.44211 2.22232 3.50286C2.44173 3.56362 2.675 3.55085 2.88647 3.46651C3.09793 3.38217 3.27596 3.2309 3.39334 3.03582L3.03605 2.82166C2.97982 2.91533 2.90002 2.99262 2.8046 3.04584C2.70919 3.09905 2.60149 3.12633 2.49224 3.12494C2.383 3.12355 2.27603 3.09355 2.18199 3.03793C2.08796 2.98231 2.01015 2.90302 1.95631 2.80795C1.90248 2.71288 1.87451 2.60536 1.87519 2.49611C1.87587 2.38686 1.90517 2.27969 1.96018 2.1853C2.01519 2.09091 2.09398 2.01258 2.1887 1.95814C2.28342 1.90369 2.39075 1.87502 2.50001 1.87499C2.72771 1.87499 2.92709 1.99666 3.03626 2.17853L3.39334 1.96395C3.30078 1.80969 3.16985 1.68204 3.01329 1.59343C2.85674 1.50482 2.6799 1.45827 2.50001 1.45832V1.45832Z" fill="#F8F8F8"/>
</g>
<defs>
<clipPath id="clip0_1_229">
<rect width="5" height="5" fill="white"/>
</clipPath>
</defs>
</svg>
