<svg width="27" height="27" viewBox="0 0 27 27" fill="none" xmlns="http://www.w3.org/2000/svg">
<path d="M13.5 0.583328C17.0095 0.583328 17.4473 0.596245 18.8242 0.660828C20.1999 0.725412 21.1363 0.94112 21.9604 1.26145C22.8129 1.58954 23.5311 2.03387 24.2492 2.75074C24.906 3.39644 25.4143 4.17751 25.7385 5.03958C26.0576 5.86237 26.2746 6.80012 26.3392 8.17574C26.3999 9.55266 26.4167 9.99054 26.4167 13.5C26.4167 17.0095 26.4037 17.4473 26.3392 18.8242C26.2746 20.1999 26.0576 21.1363 25.7385 21.9604C25.4152 22.823 24.9069 23.6042 24.2492 24.2492C23.6034 24.9058 22.8224 25.414 21.9604 25.7385C21.1376 26.0576 20.1999 26.2746 18.8242 26.3392C17.4473 26.3999 17.0095 26.4167 13.5 26.4167C9.99054 26.4167 9.55266 26.4037 8.17574 26.3392C6.80012 26.2746 5.86366 26.0576 5.03958 25.7385C4.17717 25.4149 3.39597 24.9066 2.75074 24.2492C2.09381 23.6037 1.58557 22.8226 1.26145 21.9604C0.94112 21.1376 0.725412 20.1999 0.660828 18.8242C0.60012 17.4473 0.583328 17.0095 0.583328 13.5C0.583328 9.99054 0.596245 9.55266 0.660828 8.17574C0.725412 6.79883 0.94112 5.86366 1.26145 5.03958C1.58467 4.17698 2.09303 3.3957 2.75074 2.75074C3.39615 2.09359 4.1773 1.58531 5.03958 1.26145C5.86366 0.94112 6.79883 0.725412 8.17574 0.660828C9.55266 0.60012 9.99054 0.583328 13.5 0.583328ZM13.5 7.04166C11.7871 7.04166 10.1444 7.72209 8.93326 8.93326C7.72209 10.1444 7.04166 11.7871 7.04166 13.5C7.04166 15.2129 7.72209 16.8556 8.93326 18.0667C10.1444 19.2779 11.7871 19.9583 13.5 19.9583C15.2129 19.9583 16.8556 19.2779 18.0667 18.0667C19.2779 16.8556 19.9583 15.2129 19.9583 13.5C19.9583 11.7871 19.2779 10.1444 18.0667 8.93326C16.8556 7.72209 15.2129 7.04166 13.5 7.04166V7.04166ZM21.8958 6.71874C21.8958 6.29053 21.7257 5.87986 21.4229 5.57706C21.1201 5.27427 20.7095 5.10416 20.2812 5.10416C19.853 5.10416 19.4424 5.27427 19.1396 5.57706C18.8368 5.87986 18.6667 6.29053 18.6667 6.71874C18.6667 7.14696 18.8368 7.55763 19.1396 7.86043C19.4424 8.16322 19.853 8.33333 20.2812 8.33333C20.7095 8.33333 21.1201 8.16322 21.4229 7.86043C21.7257 7.55763 21.8958 7.14696 21.8958 6.71874ZM13.5 9.62499C14.5277 9.62499 15.5133 10.0333 16.24 10.76C16.9667 11.4867 17.375 12.4723 17.375 13.5C17.375 14.5277 16.9667 15.5133 16.24 16.24C15.5133 16.9667 14.5277 17.375 13.5 17.375C12.4723 17.375 11.4867 16.9667 10.76 16.24C10.0333 15.5133 9.62499 14.5277 9.62499 13.5C9.62499 12.4723 10.0333 11.4867 10.76 10.76C11.4867 10.0333 12.4723 9.62499 13.5 9.62499V9.62499Z" fill="white"/>
</svg>
